<svg fill="none" height="26" viewBox="0 0 25 26" width="25" xmlns="http://www.w3.org/2000/svg">
    <path d="M5.19922 16.5859H18.584C22.1826 16.5859 24.8789 13.8574 24.8789 10.4521C24.8789 6.9502 22.0537 4.36133 18.3691 4.36133C17.0479 1.76172 14.5879 0 11.333 0C7.21875 0 3.87793 3.16895 3.48047 7.17578C1.49316 7.7666 0 9.48535 0 11.8057C0 14.4697 1.94434 16.5859 5.19922 16.5859ZM14.083 21.7529L15.4688 19.3574C15.6729 19.0029 15.5654 18.5947 15.2217 18.3906C14.8672 18.1865 14.4697 18.3047 14.2656 18.6592L12.8691 21.0762C12.6758 21.4092 12.7617 21.8174 13.127 22.0215C13.4707 22.2256 13.8896 22.0967 14.083 21.7529ZM5.53223 21.7637L6.91797 19.3682C7.12207 19.0137 7.01465 18.6055 6.6709 18.4014C6.31641 18.1973 5.92969 18.3154 5.71484 18.6699L4.31836 21.0869C4.125 21.4199 4.22168 21.8281 4.57617 22.0322C4.91992 22.2256 5.33887 22.1074 5.53223 21.7637ZM17.4453 24.7822L18.8311 22.376C19.0459 22.0322 18.9385 21.6133 18.584 21.4092C18.2402 21.2158 17.8428 21.3232 17.6279 21.6885L16.2422 24.1055C16.0381 24.4385 16.1348 24.8467 16.4893 25.0508C16.833 25.2441 17.252 25.1152 17.4453 24.7822ZM8.90527 24.7822L10.291 22.3867C10.4951 22.043 10.3877 21.624 10.0439 21.4199C9.68945 21.2158 9.29199 21.334 9.08789 21.6992L7.69141 24.1055C7.49805 24.4385 7.58398 24.8574 7.94922 25.0615C8.29297 25.2549 8.71191 25.126 8.90527 24.7822Z"
        fill="white"
        id="Vector" />
</svg>
